<svg width="30" height="30" viewBox="0 0 30 30" fill="none" xmlns="http://www.w3.org/2000/svg">
<g clip-path="url(#clip0_4_1042)">
<path fill-rule="evenodd" clip-rule="evenodd" d="M7.5 0C6.50544 0 5.55161 0.395088 4.84835 1.09835C4.14509 1.80161 3.75 2.75544 3.75 3.75V29.0625C3.74988 29.2253 3.79216 29.3853 3.87267 29.5268C3.95318 29.6683 4.06916 29.7864 4.20917 29.8695C4.34919 29.9525 4.50842 29.9977 4.6712 30.0005C4.83397 30.0034 4.99468 29.9638 5.1375 29.8856L15 24.5044L24.8625 29.8856C25.0053 29.9638 25.166 30.0034 25.3288 30.0005C25.4916 29.9977 25.6508 29.9525 25.7908 29.8695C25.9308 29.7864 26.0468 29.6683 26.1273 29.5268C26.2078 29.3853 26.2501 29.2253 26.25 29.0625V3.75C26.25 2.75544 25.8549 1.80161 25.1516 1.09835C24.4484 0.395088 23.4946 0 22.5 0L7.5 0ZM15 8.26875C17.6006 5.59687 24.1012 10.275 15 16.2881C5.89875 10.275 12.3994 5.59875 15 8.2725V8.26875Z" fill="#01B3A8"/>
</g>
<defs>
<clipPath id="clip0_4_1042">
<rect width="30" height="30" fill="white"/>
</clipPath>
</defs>
</svg>
