<svg width="116" height="25" viewBox="0 0 116 25" fill="none" xmlns="http://www.w3.org/2000/svg">
<path d="M28.8281 19.5708H32.331V13.5782H37.1256V19.5708H40.6089V4.98114H37.1256V10.5428H32.331V4.98114H28.8281V19.5708Z" fill="white"/>
<path d="M47.7207 12.2857C48.0925 10.8366 48.4839 9.13282 48.8362 7.60532H48.9144C49.3058 9.09365 49.6776 10.8366 50.069 12.2857L50.3822 13.5195H47.4076L47.7207 12.2857ZM42.3391 19.5708H45.9008L46.7422 16.222H51.0475L51.889 19.5708H55.568L51.0475 4.98114H46.8597L42.3391 19.5708Z" fill="white"/>
<path d="M57.2932 19.5708H62.7922C65.9625 19.5708 68.4869 18.2391 68.4869 15.2624C68.4869 13.3237 67.3715 12.227 65.9037 11.8353V11.757C67.0779 11.3066 67.802 9.89657 67.802 8.60407C67.802 5.80365 65.3949 4.98114 62.3813 4.98114H57.2932V19.5708ZM60.7961 10.7778V7.66407H62.2443C63.712 7.66407 64.3969 8.0949 64.3969 9.13282C64.3969 10.1316 63.7315 10.7778 62.2443 10.7778H60.7961ZM60.7961 16.8878V13.3432H62.5378C64.2403 13.3432 65.0818 13.8328 65.0818 15.0274C65.0818 16.2807 64.2208 16.8878 62.5378 16.8878H60.7961Z" fill="white"/>
<path d="M75.1767 19.8449C78.6992 19.8449 80.7345 17.7103 80.7345 15.282C80.7345 13.2257 79.6581 12.0116 77.8578 11.287L76.0378 10.5624C74.7462 10.0532 73.846 9.7399 73.846 8.9174C73.846 8.15365 74.4918 7.72282 75.5681 7.72282C76.7032 7.72282 77.6034 8.11448 78.5623 8.83907L80.3039 6.64573C79.0319 5.37281 77.2511 4.72656 75.5681 4.72656C72.4762 4.72656 70.2844 6.6849 70.2844 9.13282C70.2844 11.2478 71.713 12.5207 73.2394 13.1278L75.0985 13.9112C76.3509 14.4399 77.1533 14.7141 77.1533 15.5562C77.1533 16.3395 76.5466 16.8291 75.255 16.8291C74.1004 16.8291 72.7501 16.222 71.7325 15.3407L69.7364 17.7495C71.2433 19.1399 73.2785 19.8449 75.1767 19.8449Z" fill="white"/>
<path d="M83.3503 19.5708H86.8533V4.98114L83.3503 7.60532V19.5708Z" fill="white"/>
<path d="M90.3877 19.5708H94.7712C99.0178 19.5708 101.953 17.2795 101.953 12.2074C101.953 7.13532 99.0178 4.98114 94.5755 4.98114H90.3877V19.5708ZM93.8906 16.7507V7.78157H94.3603C96.7086 7.78157 98.372 8.74115 98.372 12.2074C98.372 15.6737 96.7086 16.7507 94.3603 16.7507H93.8906Z" fill="white"/>
<path d="M108.153 12.2857C108.525 10.8366 108.916 9.13282 109.268 7.60532H109.346C109.738 9.09365 110.11 10.8366 110.501 12.2857L110.814 13.5195H107.84L108.153 12.2857ZM102.771 19.5708H106.333L107.174 16.222H111.48L112.321 19.5708H116L111.48 4.98114H107.292L102.771 19.5708Z" fill="white"/>
<path d="M17.5144 11.6855L13.2114 13.789V19.1125L17.5144 16.9972V11.6855Z" fill="white"/>
<path d="M0 5.81689L11.55 0L13.5882 1.13316L2.10193 7.01143V17.0611L4.07647 18.2061V14.8408L6.07224 16.0094V22.2028L0 18.6594V5.81689Z" fill="white"/>
<path fill-rule="evenodd" clip-rule="evenodd" d="M3.97021 12.2332L6.18892 13.5552V9.4652L10.1592 7.47863L12.2741 8.68261L8.27315 10.7223V23.4892L10.8398 25.0001L21.9534 19.2812V9.4652L19.9682 10.4001V17.9958L10.8398 22.5072V12.2332L22.0702 6.1932L15.5202 2.33691L3.97021 8.22934V12.2332ZM12.4947 6.31005L14.4799 7.47863L17.3992 6.07634L15.4141 4.90777L12.4947 6.31005Z" fill="white"/>
</svg>
