<svg width="116" height="25" viewBox="0 0 116 25" fill="none" xmlns="http://www.w3.org/2000/svg">
<path d="M28.8281 19.5708H32.331V13.5782H37.1255V19.5708H40.6088V4.98114H37.1255V10.5428H32.331V4.98114H28.8281V19.5708Z" fill="#05B7BF"/>
<path d="M47.7206 12.2857C48.0925 10.8366 48.4839 9.13282 48.8361 7.60532H48.9144C49.3058 9.09365 49.6776 10.8366 50.069 12.2857L50.3821 13.5195H47.4075L47.7206 12.2857ZM42.3391 19.5708H45.9007L46.7422 16.222H51.0474L51.8889 19.5708H55.568L51.0474 4.98114H46.8596L42.3391 19.5708Z" fill="#05B7BF"/>
<path d="M57.2931 19.5708H62.7921C65.9624 19.5708 68.4868 18.2391 68.4868 15.2624C68.4868 13.3237 67.3714 12.227 65.9037 11.8353V11.757C67.0779 11.3066 67.8019 9.89657 67.8019 8.60407C67.8019 5.80365 65.3949 4.98114 62.3812 4.98114H57.2931V19.5708ZM60.7961 10.7778V7.66407H62.2442C63.7119 7.66407 64.3968 8.0949 64.3968 9.13282C64.3968 10.1316 63.7315 10.7778 62.2442 10.7778H60.7961ZM60.7961 16.8878V13.3432H62.5377C64.2403 13.3432 65.0818 13.8328 65.0818 15.0274C65.0818 16.2807 64.2207 16.8878 62.5377 16.8878H60.7961Z" fill="#05B7BF"/>
<path d="M75.1767 19.8449C78.6992 19.8449 80.7344 17.7103 80.7344 15.282C80.7344 13.2257 79.6581 12.0116 77.8577 11.287L76.0377 10.5624C74.7462 10.0532 73.846 9.7399 73.846 8.9174C73.846 8.15365 74.4918 7.72282 75.5681 7.72282C76.7031 7.72282 77.6033 8.11448 78.5622 8.83907L80.3039 6.64573C79.0319 5.37281 77.251 4.72656 75.5681 4.72656C72.4761 4.72656 70.2843 6.6849 70.2843 9.13282C70.2843 11.2478 71.7129 12.5207 73.2393 13.1278L75.0984 13.9112C76.3508 14.4399 77.1532 14.7141 77.1532 15.5562C77.1532 16.3395 76.5465 16.8291 75.255 16.8291C74.1004 16.8291 72.7501 16.222 71.7325 15.3407L69.7364 17.7495C71.2432 19.1399 73.2785 19.8449 75.1767 19.8449Z" fill="#05B7BF"/>
<path d="M83.3503 19.5708H86.8532V4.98114L83.3503 7.60532V19.5708Z" fill="#05B7BF"/>
<path d="M90.3876 19.5708H94.7712C99.0177 19.5708 101.953 17.2795 101.953 12.2074C101.953 7.13532 99.0177 4.98114 94.5755 4.98114H90.3876V19.5708ZM93.8905 16.7507V7.78157H94.3602C96.7085 7.78157 98.3719 8.74115 98.3719 12.2074C98.3719 15.6737 96.7085 16.7507 94.3602 16.7507H93.8905Z" fill="#05B7BF"/>
<path d="M108.153 12.2857C108.524 10.8366 108.916 9.13282 109.268 7.60532H109.346C109.738 9.09365 110.11 10.8366 110.501 12.2857L110.814 13.5195H107.84L108.153 12.2857ZM102.771 19.5708H106.333L107.174 16.222H111.479L112.321 19.5708H116L111.479 4.98114H107.292L102.771 19.5708Z" fill="#05B7BF"/>
<path d="M17.5144 11.6855L13.2114 13.789V19.1125L17.5144 16.9972V11.6855Z" fill="#05B7BF"/>
<path d="M0 5.81689L11.55 0L13.5882 1.13316L2.10193 7.01143V17.0611L4.07647 18.2061V14.8408L6.07224 16.0094V22.2028L0 18.6594V5.81689Z" fill="#05B7BF"/>
<path fill-rule="evenodd" clip-rule="evenodd" d="M3.97034 12.2332L6.18904 13.5552V9.4652L10.1594 7.47863L12.2743 8.68261L8.27328 10.7223V23.4892L10.8399 25.0001L21.9535 19.2812V9.4652L19.9684 10.4001V17.9958L10.8399 22.5072V12.2332L22.0703 6.1932L15.5203 2.33691L3.97034 8.22934V12.2332ZM12.4948 6.31005L14.48 7.47863L17.3993 6.07634L15.4142 4.90777L12.4948 6.31005Z" fill="#05B7BF"/>
</svg>
